<svg xmlns="http://www.w3.org/2000/svg" width="198.393" height="341.453"><g transform="translate(-86.827 -58.562)" fill="#f57900"><path d="M111.827 73.562c0 1.842.04 85.916.126 87.73 2.283 48.408 34.594 86.833 74.07 86.833 39.33 0 71.536-38.143 74.036-86.293.102-1.994.16-86.244.16-88.27h-93.693l-7.262 29.046 17.255 18.98s-22.13 54.066-24.43 56.942c-2.302 2.876 10.378-54.066 10.378-54.066l-15.53-21.856 5.464-29.046zm64.994 177.044c6.863 40.283 5.37 77.432 0 113.128h18.406c-5.224-39.42-3.94-76.672 0-113.038-5.015 1.986-11.956 1.197-18.405-.09zM170.28 366.61l-32.568 12.654.36 5.75h94.273l1.995-5.75-35.93-12.654z"/><title>Layer 1</title></g></svg>